<?xml version="1.0" encoding="UTF-8" standalone="no"?>
<svg
   xmlns:dc="http://purl.org/dc/elements/1.1/"
   xmlns:cc="http://creativecommons.org/ns#"
   xmlns:rdf="http://www.w3.org/1999/02/22-rdf-syntax-ns#"
   xmlns:svg="http://www.w3.org/2000/svg"
   xmlns="http://www.w3.org/2000/svg"
   id="SVGRoot"
   version="1.1"
   viewBox="0 0 20 20"
   height="20px"
   width="20px">
  <defs
     id="defs1366" />
  <metadata
     id="metadata1369">
    <rdf:RDF>
      <cc:Work
         rdf:about="">
        <dc:format>image/svg+xml</dc:format>
        <dc:type
           rdf:resource="http://purl.org/dc/dcmitype/StillImage" />
        <dc:title></dc:title>
      </cc:Work>
    </rdf:RDF>
  </metadata>
  <g
     id="layer1">
    <circle
       r="11.428572"
       cy="9.6927261"
       cx="10.174748"
       id="path1925"
       style="fill:#ffffff;fill-opacity:1;stroke:#111111;stroke-width:1.14285707;stroke-miterlimit:4;stroke-dasharray:none;stroke-opacity:1" />
  </g>
  <g
     id="layer2">
    <path
       style="fill:#000000;fill-opacity:1;stroke:#111111;stroke-width:0.03114882;stroke-opacity:0.84705882"
       d="m 16.417966,6.2607621 c 0.01007,0.1416593 0.01007,0.2833586 0.01007,0.4250278 0,4.3209581 -3.288785,9.2997271 -9.2997264,9.2997271 -1.8518578,0 -3.5721434,-0.536356 -5.0192274,-1.467299 0.2631144,0.0303 0.5160717,0.04047 0.7893131,0.04047 1.5280009,0 2.9346265,-0.516081 4.0578837,-1.396468 -1.436957,-0.0304 -2.6411709,-0.971471 -3.0560816,-2.266759 0.2024118,0.0303 0.4047837,0.05053 0.6173125,0.05053 0.2934557,0 0.5869413,-0.04047 0.8601428,-0.111299 C 3.87998,10.531085 2.7566929,9.2155831 2.7566929,7.6268396 V 7.5863712 C 3.1918079,7.8292411 3.6978223,7.9810281 4.2341182,8.0012421 3.3537213,7.4143108 2.776937,6.4124987 2.776937,5.2791145 c 0,-0.6071456 0.1618836,-1.1637156 0.4452421,-1.649456 1.6089975,1.9834099 4.0275423,3.2786677 6.7395229,3.4203669 -0.050532,-0.2428702 -0.080939,-0.4958276 -0.080939,-0.7488248 0,-1.8012722 1.4572002,-3.2685705 3.2685702,-3.2685705 0.9411,0 1.791115,0.3946565 2.388174,1.0321833 0.738697,-0.1416693 1.447053,-0.4149007 2.074483,-0.7893131 -0.2429,0.7589718 -0.758972,1.3964985 -1.436957,1.8012423 0.657771,-0.07077 1.295298,-0.2529873 1.8822,-0.5059447 -0.445183,0.647614 -1.001783,1.2243982 -1.6393,1.6899144 z"
       id="path1987" />
  </g>
</svg>
